<svg width="168.33" height="45.5" viewBox="0 0 404 109.2" xmlns="http://www.w3.org/2000/svg"><g id="svgGroup" stroke-linecap="round" fill-rule="evenodd" font-size="9pt" stroke="#000" stroke-width="0.25mm" fill="#000" style="stroke:#000;stroke-width:0.25mm;fill:#000"><path d="M 213.6 7.2 L 222.9 3.6 L 222.9 29.7 A 57.977 57.977 0 0 1 225.22 22.457 Q 226.723 18.687 228.669 15.599 A 36.098 36.098 0 0 1 228.7 15.55 A 38.764 38.764 0 0 1 231.744 11.349 Q 233.484 9.275 235.341 7.767 A 21.043 21.043 0 0 1 236.7 6.75 Q 239.795 4.626 242.58 4.032 A 10.132 10.132 0 0 1 244.7 3.8 A 8.812 8.812 0 0 1 246.989 4.08 A 6.038 6.038 0 0 1 250.4 6.4 A 9.261 9.261 0 0 1 251.847 9.506 Q 252.3 11.2 252.3 13.3 L 252.3 29.6 A 57.566 57.566 0 0 1 254.576 22.48 Q 256.105 18.627 258.1 15.5 Q 261.8 9.7 266.05 6.75 A 20.18 20.18 0 0 1 268.919 5.07 Q 270.598 4.276 272.202 3.979 A 10.381 10.381 0 0 1 274.1 3.8 A 8.975 8.975 0 0 1 276.389 4.075 A 6.042 6.042 0 0 1 279.8 6.35 A 8.853 8.853 0 0 1 281.187 9.227 Q 281.7 11.014 281.7 13.3 L 281.7 65.9 A 10.701 10.701 0 0 0 281.842 67.695 Q 282.015 68.713 282.401 69.537 A 5.633 5.633 0 0 0 282.9 70.4 A 4.034 4.034 0 0 0 284.166 71.588 Q 284.965 72.052 285.986 72.095 A 5.022 5.022 0 0 0 286.2 72.1 A 5.354 5.354 0 0 0 288.156 71.715 A 7.477 7.477 0 0 0 289.45 71.05 Q 291.1 70 292.2 68.5 L 293.6 69.8 Q 292.2 72.9 289.35 75 A 10.762 10.762 0 0 1 283.793 77.049 A 13.634 13.634 0 0 1 282.6 77.1 A 10.431 10.431 0 0 1 279.017 76.508 A 9.058 9.058 0 0 1 275.3 73.95 A 10.124 10.124 0 0 1 273.267 70.3 Q 272.5 67.941 272.5 64.8 L 272.5 15.9 Q 272.5 14.391 272.112 13.333 A 4.071 4.071 0 0 0 271.6 12.35 Q 270.716 11.123 269.255 11.1 A 3.56 3.56 0 0 0 269.2 11.1 Q 266.584 11.1 263.291 14.519 A 28.287 28.287 0 0 0 262.05 15.9 A 30.222 30.222 0 0 0 258.949 20.394 Q 256.822 24.113 255.1 29.1 A 52.48 52.48 0 0 0 252.608 40.342 A 66.164 66.164 0 0 0 252.2 47.8 L 252.2 74.7 L 243 78 L 243 15.9 Q 243 14.403 242.661 13.351 A 4.285 4.285 0 0 0 242.2 12.35 Q 241.404 11.106 240.014 11.1 A 3.137 3.137 0 0 0 240 11.1 A 5.135 5.135 0 0 0 237.858 11.617 Q 235.555 12.675 232.8 15.9 A 29.908 29.908 0 0 0 229.667 20.394 Q 227.522 24.113 225.8 29.1 A 52.48 52.48 0 0 0 223.308 40.342 A 66.164 66.164 0 0 0 222.9 47.8 L 222.9 74.7 L 213.6 78 L 213.6 7.2 Z M 377.1 75.6 L 379.7 69.9 Q 382.2 71.5 386.9 71.5 Q 390.432 71.5 392.868 67.574 A 16.853 16.853 0 0 0 393.75 65.95 Q 395.825 61.603 396.275 55.324 A 50.745 50.745 0 0 0 396.4 51.7 A 21.763 21.763 0 0 0 395.539 45.504 A 19.554 19.554 0 0 0 394.4 42.55 A 17.02 17.02 0 0 0 391.496 38.256 A 15.059 15.059 0 0 0 388.9 36.05 Q 385.4 33.7 381.1 33.7 A 7.964 7.964 0 0 0 374.61 36.899 A 13.478 13.478 0 0 0 373.1 39.3 Q 370.417 44.667 370.305 54.35 A 73.64 73.64 0 0 0 370.3 55.2 L 370.3 105.5 L 361.6 109.2 L 361.6 35.5 A 6.596 6.596 0 0 0 361.497 34.297 Q 361.313 33.305 360.8 32.6 A 2.811 2.811 0 0 0 360.083 31.898 A 2.447 2.447 0 0 0 358.7 31.5 Q 357.978 31.5 357.152 32.021 A 6.15 6.15 0 0 0 356.5 32.5 Q 355.463 33.364 353.978 35.125 A 49.706 49.706 0 0 0 353.5 35.7 L 352 34.2 A 12.438 12.438 0 0 1 356.014 28.598 A 14.856 14.856 0 0 1 356.2 28.45 A 12.804 12.804 0 0 1 358.427 27.029 Q 360.313 26.1 362.2 26.1 A 12.016 12.016 0 0 1 364.622 26.327 Q 366.037 26.619 367.1 27.285 A 5.934 5.934 0 0 1 368.7 28.75 A 8.01 8.01 0 0 1 369.839 30.956 Q 370.579 33.08 370.683 36.239 A 32.232 32.232 0 0 1 370.7 37.3 L 371.1 37.3 A 25.681 25.681 0 0 1 373.925 32.524 A 20.788 20.788 0 0 1 377.05 29.2 A 15.196 15.196 0 0 1 379.693 27.372 Q 381.658 26.319 383.665 26.138 A 9.288 9.288 0 0 1 384.5 26.1 Q 389.8 26.1 394.3 29.15 A 20.813 20.813 0 0 1 400.852 36.406 A 24.902 24.902 0 0 1 401.4 37.45 A 25.354 25.354 0 0 1 403.997 48.513 A 29.363 29.363 0 0 1 404 48.9 A 53.204 53.204 0 0 1 403.539 56.089 Q 403.022 59.877 401.925 63.108 A 31.191 31.191 0 0 1 401.55 64.15 A 26.069 26.069 0 0 1 398.995 69.229 A 19.523 19.523 0 0 1 394.5 74.1 A 17.145 17.145 0 0 1 384.564 77.583 A 21.388 21.388 0 0 1 383.7 77.6 Q 382.2 77.6 380.75 77.15 Q 379.3 76.7 377.1 75.6 Z M 31.2 54.9 L 42.1 68.2 Q 44.196 70.152 46.292 70.693 A 6.411 6.411 0 0 0 47.9 70.9 A 7.095 7.095 0 0 0 50.555 70.362 Q 51.667 69.916 52.8 69.1 A 37.267 37.267 0 0 0 55.604 66.857 A 48.619 48.619 0 0 0 57.9 64.7 L 59.4 66 A 20.106 20.106 0 0 0 59.171 66.295 Q 58.625 67.006 57.089 69.061 A 1500.659 1500.659 0 0 0 56.35 70.05 A 25.157 25.157 0 0 1 51.516 74.994 A 23.263 23.263 0 0 1 50.25 75.9 A 15.525 15.525 0 0 1 47.578 77.346 Q 45.769 78.093 44.004 78.187 A 9.53 9.53 0 0 1 43.5 78.2 A 9.044 9.044 0 0 1 38.993 76.977 A 11.372 11.372 0 0 1 38.15 76.45 Q 35.6 74.7 32.6 70.9 L 20.6 56.2 L 21.2 53.5 Q 27.9 52.8 34.05 49.35 Q 40.2 45.9 44 40.2 Q 47.8 34.5 47.8 27.6 A 20.079 20.079 0 0 0 47.16 22.397 A 14.732 14.732 0 0 0 43.25 15.6 A 14.424 14.424 0 0 0 37.415 12.16 Q 35.149 11.431 32.4 11.204 A 31.511 31.511 0 0 0 29.8 11.1 A 33.104 33.104 0 0 0 21.571 12.186 A 44.321 44.321 0 0 0 15.25 14.35 A 47.896 47.896 0 0 0 4.583 20.544 A 43.584 43.584 0 0 0 1.9 22.8 L 0 20.7 A 61.768 61.768 0 0 1 15.095 10.419 A 70.384 70.384 0 0 1 17.05 9.5 Q 26.8 5.1 35.9 5.1 A 28.734 28.734 0 0 1 42.795 5.886 A 20.844 20.844 0 0 1 51.45 10.25 Q 57.138 15.092 57.478 24.486 A 33.538 33.538 0 0 1 57.5 25.7 Q 57.5 32.4 53.85 38.35 A 35.624 35.624 0 0 1 44.757 48.239 A 40.698 40.698 0 0 1 44.2 48.65 Q 38.2 53 31.2 54.9 Z M 339.7 35.1 L 332.5 39 Q 330.9 36.7 328.1 34.85 Q 325.3 33 322.1 33 A 16.538 16.538 0 0 0 317.083 33.737 A 14.288 14.288 0 0 0 313.2 35.65 A 16.75 16.75 0 0 0 307.591 42.382 A 19.969 19.969 0 0 0 307.4 42.8 Q 305.4 47.3 305.4 52.8 A 38.115 38.115 0 0 0 305.719 57.883 Q 306.081 60.566 306.852 62.801 A 18.637 18.637 0 0 0 308.1 65.65 A 9.773 9.773 0 0 0 310.652 68.738 Q 313.043 70.6 316.6 70.6 A 15.688 15.688 0 0 0 321.019 70.018 A 10.664 10.664 0 0 0 327.9 64 A 33.128 33.128 0 0 0 330.981 50.811 A 38.565 38.565 0 0 0 331 49.6 L 331 45.1 L 339.8 41.4 L 339.8 67.7 A 4.851 4.851 0 0 0 340.41 70.04 A 5.784 5.784 0 0 0 340.5 70.2 A 2.51 2.51 0 0 0 341.146 70.949 Q 341.655 71.335 342.357 71.391 A 3.062 3.062 0 0 0 342.6 71.4 Q 344.783 71.4 346.682 69.134 A 13.547 13.547 0 0 0 347.9 67.4 L 349.4 69 A 12.438 12.438 0 0 1 345.386 74.602 A 14.856 14.856 0 0 1 345.2 74.75 A 12.804 12.804 0 0 1 342.973 76.171 Q 341.087 77.1 339.2 77.1 A 9.1 9.1 0 0 1 336.62 76.755 A 6.558 6.558 0 0 1 332.85 73.9 A 11.867 11.867 0 0 1 331.413 70.569 Q 330.8 68.298 330.8 65.4 L 330.6 65.4 Q 328.1 70.7 323.85 74.25 A 16.729 16.729 0 0 1 320.323 76.548 A 12.493 12.493 0 0 1 314.9 77.8 Q 306.4 77.8 302.05 71.95 A 20.618 20.618 0 0 1 298.754 64.99 Q 297.963 62.09 297.766 58.652 A 41.003 41.003 0 0 1 297.7 56.3 Q 297.7 48.5 301.2 41.65 A 29.022 29.022 0 0 1 309.099 31.908 A 28.411 28.411 0 0 1 310.75 30.7 Q 316.8 26.6 324.1 26.6 Q 329 26.6 333.35 28.7 Q 337.7 30.8 339.7 35.1 Z M 89 25.7 L 90.8 27.8 A 50.874 50.874 0 0 0 84.472 32.542 A 37.477 37.477 0 0 0 79 38.5 A 22.415 22.415 0 0 0 74.785 50.192 A 28.221 28.221 0 0 0 74.7 52.4 A 22.705 22.705 0 0 0 75.954 59.746 A 26.867 26.867 0 0 0 76.6 61.45 Q 78.5 66 82.3 69 Q 86.1 72 91.4 72 A 15.776 15.776 0 0 0 95.937 71.367 A 13.698 13.698 0 0 0 99.05 70 Q 102.4 68 104.25 64.6 A 15.379 15.379 0 0 0 106.098 57.356 A 18.028 18.028 0 0 0 106.1 57.1 A 17.043 17.043 0 0 0 105.042 51.298 A 23.216 23.216 0 0 0 103.25 47.5 Q 100.4 42.6 95.8 39.2 A 21.722 21.722 0 0 0 91.737 36.799 A 16.403 16.403 0 0 0 86.4 35.4 A 45.038 45.038 0 0 1 88.525 33.416 Q 89.602 32.47 90.842 31.483 A 73.717 73.717 0 0 1 91.2 31.2 Q 94 29 96.9 26.9 Q 103.8 29.2 107.8 35.65 Q 111.8 42.1 111.8 50 Q 111.8 57 108.95 63.45 Q 106.1 69.9 100.6 73.95 A 20.803 20.803 0 0 1 89.67 77.92 A 26.311 26.311 0 0 1 87.6 78 Q 81.6 78 76.55 75.05 Q 71.5 72.1 68.6 67 A 22.376 22.376 0 0 1 65.703 56.086 A 26.293 26.293 0 0 1 65.7 55.7 A 30.856 30.856 0 0 1 67.741 44.355 A 28.59 28.59 0 0 1 72.15 36.8 A 33.186 33.186 0 0 1 88.595 25.823 A 40.184 40.184 0 0 1 89 25.7 Z M 144 25.7 L 145.8 27.8 A 50.874 50.874 0 0 0 139.472 32.542 A 37.477 37.477 0 0 0 134 38.5 A 22.415 22.415 0 0 0 129.785 50.192 A 28.221 28.221 0 0 0 129.7 52.4 A 22.705 22.705 0 0 0 130.954 59.746 A 26.867 26.867 0 0 0 131.6 61.45 Q 133.5 66 137.3 69 Q 141.1 72 146.4 72 A 15.776 15.776 0 0 0 150.937 71.367 A 13.698 13.698 0 0 0 154.05 70 Q 157.4 68 159.25 64.6 A 15.379 15.379 0 0 0 161.098 57.356 A 18.028 18.028 0 0 0 161.1 57.1 A 17.043 17.043 0 0 0 160.042 51.298 A 23.216 23.216 0 0 0 158.25 47.5 Q 155.4 42.6 150.8 39.2 A 21.722 21.722 0 0 0 146.737 36.799 A 16.403 16.403 0 0 0 141.4 35.4 A 45.038 45.038 0 0 1 143.525 33.416 Q 144.602 32.47 145.842 31.483 A 73.717 73.717 0 0 1 146.2 31.2 Q 149 29 151.9 26.9 Q 158.8 29.2 162.8 35.65 Q 166.8 42.1 166.8 50 Q 166.8 57 163.95 63.45 Q 161.1 69.9 155.6 73.95 A 20.803 20.803 0 0 1 144.67 77.92 A 26.311 26.311 0 0 1 142.6 78 Q 136.6 78 131.55 75.05 Q 126.5 72.1 123.6 67 A 22.376 22.376 0 0 1 120.703 56.086 A 26.293 26.293 0 0 1 120.7 55.7 A 30.856 30.856 0 0 1 122.741 44.355 A 28.59 28.59 0 0 1 127.15 36.8 A 33.186 33.186 0 0 1 143.595 25.823 A 40.184 40.184 0 0 1 144 25.7 Z M 190.5 0 L 190.5 26.6 L 204.4 26.6 L 201.4 33 L 190.5 33 L 190.5 68.2 A 4.084 4.084 0 0 0 190.649 69.328 A 3.157 3.157 0 0 0 191.4 70.65 Q 192.3 71.6 193.8 71.6 A 3.326 3.326 0 0 0 195.088 71.3 Q 196.834 70.558 199.334 67.978 A 36.447 36.447 0 0 0 199.6 67.7 L 201 69.2 Q 199.1 73 196.45 74.85 Q 193.8 76.7 191.45 77.15 Q 189.1 77.6 189.1 77.2 A 0.595 0.595 0 0 0 189.164 77.196 Q 189.256 77.186 189.4 77.15 A 1.248 1.248 0 0 1 189.528 77.126 Q 189.669 77.106 189.871 77.101 A 5.624 5.624 0 0 1 190 77.1 Q 181.552 77.1 181.214 67.792 A 21.83 21.83 0 0 1 181.2 67 L 181.2 33 L 173.7 33 L 176.8 26.6 L 181.2 26.6 L 181.2 3.6 L 190.5 0 Z M 15.3 19.6 L 15.3 74.4 L 6.1 78.1 L 6.1 23.1 L 15.3 19.6 Z" vector-effect="non-scaling-stroke"/></g></svg>